<?xml version="1.0" standalone="no"?>
<!DOCTYPE svg PUBLIC "-//W3C//DTD SVG 20010904//EN"
 "http://www.w3.org/TR/2001/REC-SVG-20010904/DTD/svg10.dtd">
<svg version="1.0" xmlns="http://www.w3.org/2000/svg"
 width="501.000000pt" height="501.000000pt" viewBox="0 0 501.000000 501.000000"
 preserveAspectRatio="xMidYMid meet">
<metadata>
Created by potrace 1.14, written by Peter Selinger 2001-2017
</metadata>
<g transform="translate(0.000000,501.000000) scale(0.100000,-0.100000)"
fill="#000000" stroke="none">
<path d="M3129 4780 c-5 -447 2 -1339 11 -1395 44 -283 227 -539 480 -673 77
-41 171 -77 231 -87 19 -3 52 -10 73 -15 58 -13 228 -9 304 7 203 42 350 119
488 257 126 127 199 256 245 436 l27 105 1 710 1 710 -312 -311 -313 -311
-310 2 -310 2 -307 309 -308 309 -1 -55z m626 -1060 c63 -39 87 -129 52 -197
-56 -107 -220 -105 -271 2 -67 140 86 276 219 195z m766 4 c69 -35 96 -123 60
-197 -45 -93 -163 -115 -239 -44 -77 72 -58 196 38 245 48 25 89 23 141 -4z"/>
<path d="M338 4215 c-2 -1 -24 -5 -50 -8 -97 -12 -200 -94 -237 -190 -27 -72
-24 -185 7 -245 57 -107 149 -169 268 -178 122 -10 192 -43 254 -120 75 -94
70 8 70 -1446 1 -1449 -3 -1357 71 -1507 85 -173 260 -300 454 -329 27 -4 453
-7 945 -7 875 0 896 1 929 20 67 40 76 61 79 208 4 162 -13 221 -87 296 -81
84 -132 97 -353 96 -87 0 -158 2 -158 6 0 4 246 190 546 415 300 225 565 424
588 442 22 17 46 36 51 40 6 4 15 11 21 15 8 5 12 -184 12 -707 1 -773 -1
-742 54 -794 37 -34 67 -38 275 -37 l191 1 37 28 c69 53 65 -11 65 1110 l0
1014 -37 -9 c-21 -5 -51 -11 -68 -14 -16 -3 -53 -9 -82 -13 -76 -13 -246 -6
-348 13 -310 58 -582 228 -766 480 -33 44 -63 85 -67 90 -26 32 -105 214 -128
295 -16 52 -33 98 -38 102 -5 3 -32 4 -60 2 -82 -5 -200 -16 -217 -19 -9 -2
-32 -6 -50 -9 -315 -53 -596 -176 -844 -370 -118 -92 -263 -246 -362 -383
l-30 -42 -1 447 c0 246 -3 467 -7 492 -38 261 -164 475 -369 629 -150 113
-299 166 -528 186 -15 1 -28 1 -30 0z"/>
</g>
</svg>
